<svg id="Layer_1" enable-background="new 0 0 510 510" height="512" viewBox="0 0 510 510" width="512" xmlns="http://www.w3.org/2000/svg"><path d="m435.311 74.688c-48.163-48.164-112.199-74.688-180.311-74.688s-132.148 26.524-180.312 74.688-74.688 112.2-74.688 180.312 26.524 132.148 74.688 180.311c48.164 48.165 112.2 74.689 180.312 74.689s132.148-26.524 180.311-74.689c48.165-48.163 74.689-112.199 74.689-180.311s-26.524-132.148-74.689-180.312zm-165.311 404.8v-89.488h75.294c-7.387 31.497-17.309 59.332-29.123 81.547-14.829 4.194-30.278 6.889-46.171 7.941zm-76.171-7.941c-11.815-22.215-21.736-50.05-29.123-81.547h75.294v89.488c-15.893-1.052-31.342-3.747-46.171-7.941zm-163.317-201.547h89.651c.655 31.035 3.358 61.181 8.054 90h-72.162c-14.411-27.193-23.405-57.673-25.543-90zm209.488-239.488v89.488h-75.294c7.387-31.497 17.308-59.332 29.123-81.547 14.829-4.194 30.278-6.89 46.171-7.941zm76.171 7.941c11.815 22.215 21.736 50.05 29.123 81.547h-75.294v-89.488c15.893 1.051 31.342 3.747 46.171 7.941zm35.197 111.547c4.937 28.686 7.778 58.85 8.466 90h-89.834v-90zm-111.368 0v90h-89.834c.687-31.15 3.528-61.314 8.466-90zm-119.837 90h-89.651c2.139-32.327 11.133-62.807 25.543-90h72.162c-4.696 28.819-7.399 58.965-8.054 90zm30.003 30h89.834v90h-81.368c-4.938-28.686-7.779-58.85-8.466-90zm119.834 90v-90h89.834c-.688 31.15-3.529 61.314-8.466 90zm119.837-90h89.651c-2.139 32.327-11.133 62.807-25.543 90h-72.163c4.696-28.819 7.4-58.965 8.055-90zm0-30c-.655-31.035-3.358-61.181-8.055-90h72.163c14.41 27.193 23.404 57.673 25.543 90zm45.049-120h-58.831c-5.266-23.906-11.932-46.098-19.769-65.875 30.987 15.688 57.878 38.333 78.6 65.875zm-281.173-65.875c-7.836 19.777-14.502 41.969-19.768 65.875h-58.831c20.722-27.542 47.613-50.187 78.599-65.875zm-78.599 335.875h58.831c5.266 23.906 11.932 46.098 19.768 65.875-30.986-15.689-57.877-38.333-78.599-65.875zm281.172 65.875c7.837-19.777 14.503-41.969 19.769-65.875h58.831c-20.722 27.542-47.613 50.186-78.6 65.875z"/></svg>