<?xml version="1.0" standalone="no"?>
<!DOCTYPE svg PUBLIC "-//W3C//DTD SVG 20010904//EN"
 "http://www.w3.org/TR/2001/REC-SVG-20010904/DTD/svg10.dtd">
<svg version="1.0" xmlns="http://www.w3.org/2000/svg"
 width="7527.000000pt" height="1510.000000pt" viewBox="0 0 7527.000000 1510.000000"
 preserveAspectRatio="xMidYMid meet">

<g transform="translate(0.000000,1510.000000) scale(0.100000,-0.100000)"
fill="#000000" stroke="none">
<path d="M28480 11739 c-78 -27 -149 -49 -195 -61 -22 -5 -53 -16 -70 -23 -16
-7 -48 -17 -70 -21 -22 -3 -51 -12 -65 -19 -14 -7 -48 -17 -75 -23 -28 -6 -64
-18 -80 -26 -17 -9 -40 -16 -52 -16 -11 0 -45 -9 -75 -19 -29 -11 -87 -29
-128 -42 -41 -12 -107 -33 -147 -45 -39 -13 -80 -24 -90 -24 -10 0 -28 -7 -40
-15 -11 -8 -40 -17 -64 -21 -24 -4 -62 -15 -84 -25 -22 -10 -50 -19 -61 -19
-12 0 -41 -9 -65 -20 -24 -11 -55 -20 -69 -20 -14 0 -43 -9 -65 -20 -22 -11
-51 -20 -65 -20 -14 0 -38 -7 -55 -16 -16 -8 -52 -20 -80 -26 -27 -6 -61 -16
-75 -23 -14 -7 -42 -15 -62 -19 -21 -4 -44 -14 -53 -22 -13 -14 -15 -402 -15
-3679 0 -3331 1 -3663 16 -3669 9 -3 452 -6 985 -6 788 0 971 2 975 13 2 7 6
443 7 969 l2 955 45 45 c25 25 115 109 200 188 85 78 180 166 211 195 31 29
68 60 82 70 26 17 26 16 52 -22 56 -81 125 -193 125 -202 0 -5 6 -16 13 -23 7
-7 28 -38 46 -68 18 -30 54 -91 82 -135 27 -44 54 -91 61 -105 12 -23 47 -79
115 -181 12 -19 23 -38 23 -42 0 -4 16 -30 35 -58 20 -27 40 -60 46 -72 5 -12
23 -42 39 -67 16 -25 34 -55 39 -67 5 -11 15 -24 21 -28 5 -3 17 -21 25 -38
21 -43 39 -73 56 -94 9 -10 21 -29 28 -43 22 -45 46 -84 84 -141 20 -31 37
-61 37 -66 0 -5 9 -18 20 -28 11 -10 20 -23 20 -28 0 -5 20 -40 45 -78 25 -38
45 -71 45 -74 0 -3 16 -28 35 -56 20 -27 40 -60 46 -72 5 -12 23 -42 39 -67
16 -25 45 -72 65 -105 20 -33 60 -99 89 -147 29 -47 56 -92 60 -100 3 -7 20
-33 36 -58 16 -25 44 -71 62 -102 18 -31 42 -59 53 -62 11 -3 548 -6 1193 -6
1050 0 1173 2 1179 16 3 8 -4 25 -16 38 -11 12 -21 27 -21 33 0 5 -9 18 -20
28 -11 10 -20 23 -20 30 0 7 -9 20 -20 30 -11 10 -20 24 -20 30 0 7 -7 19 -16
26 -9 7 -20 22 -25 34 -8 17 -43 71 -67 100 -4 6 -22 33 -40 60 -18 28 -37 57
-42 65 -72 108 -217 326 -225 340 -6 10 -17 26 -25 35 -8 9 -19 25 -25 35 -5
9 -23 37 -40 61 -16 24 -34 51 -40 60 -5 9 -40 61 -77 115 -102 150 -158 233
-374 558 -109 164 -234 351 -276 415 -43 64 -82 123 -88 131 -81 123 -349 523
-434 648 -61 90 -116 172 -121 182 -6 10 -17 26 -25 35 -8 9 -19 25 -25 34
-21 35 -54 87 -85 131 -17 25 -45 68 -63 95 -17 28 -35 55 -39 60 -5 6 -58 85
-118 176 -71 108 -110 176 -110 193 0 21 34 62 163 193 89 91 257 263 373 382
849 870 1177 1204 1367 1396 121 121 230 239 244 263 l25 42 -1136 0 -1135 0
-68 -68 c-37 -37 -106 -110 -153 -162 -85 -93 -225 -242 -330 -351 -30 -31
-100 -105 -155 -165 -55 -59 -136 -146 -181 -193 -45 -47 -161 -171 -260 -276
-98 -104 -200 -211 -226 -237 -87 -86 -276 -321 -360 -448 -67 -102 -102 -138
-114 -118 -5 7 -10 882 -11 1943 -2 1062 -4 1938 -7 1948 -5 20 -6 20 -76 -4z"/>
<path d="M52921 11740 c-24 -11 -50 -20 -57 -20 -13 0 -127 -34 -209 -62 -16
-5 -52 -16 -80 -24 -54 -14 -131 -38 -180 -56 -16 -5 -48 -15 -70 -20 -22 -6
-62 -18 -90 -28 -27 -10 -65 -22 -83 -25 -18 -4 -45 -13 -60 -21 -15 -8 -36
-14 -47 -14 -11 -1 -38 -8 -60 -16 -22 -8 -62 -21 -90 -29 -50 -14 -124 -37
-180 -56 -16 -6 -59 -19 -95 -29 -36 -10 -96 -28 -135 -40 -38 -12 -95 -28
-125 -36 -30 -8 -64 -19 -75 -25 -20 -9 -58 -21 -199 -60 -38 -10 -72 -22 -75
-25 -3 -3 -6 -1658 -6 -3677 l0 -3672 995 0 995 0 3 3964 c1 2922 -1 3967 -9
3977 -14 18 -15 18 -68 -6z"/>
<path d="M60485 11728 c-16 -5 -50 -16 -75 -24 -25 -9 -65 -20 -90 -25 -25 -6
-67 -19 -95 -28 -98 -36 -180 -61 -196 -61 -9 0 -36 -9 -60 -20 -24 -11 -55
-20 -69 -20 -14 0 -43 -9 -65 -20 -22 -11 -50 -19 -63 -20 -12 0 -39 -7 -60
-16 -20 -9 -59 -22 -87 -29 -27 -7 -63 -18 -80 -24 -69 -24 -133 -44 -180 -55
-27 -6 -59 -17 -70 -23 -11 -6 -38 -14 -60 -18 -22 -4 -62 -15 -90 -25 -27
-10 -84 -28 -125 -40 -143 -44 -195 -60 -245 -75 -27 -9 -72 -22 -100 -30 -27
-7 -67 -20 -87 -29 l-38 -16 0 -943 c0 -565 -4 -948 -10 -957 -7 -12 -13 -11
-37 10 -15 14 -29 28 -31 31 -12 27 -231 255 -277 289 -11 8 -45 35 -75 61
-63 52 -190 135 -270 177 -19 10 -44 23 -55 29 -78 40 -194 87 -290 116 -157
49 -195 58 -272 67 -43 5 -94 14 -113 20 -50 17 -456 24 -565 11 -140 -17
-331 -47 -343 -55 -7 -4 -42 -13 -79 -21 -126 -26 -250 -73 -448 -170 -131
-65 -351 -198 -380 -230 -5 -7 -44 -39 -85 -73 -119 -97 -327 -316 -406 -428
-88 -126 -134 -196 -134 -203 0 -5 -8 -19 -19 -32 -10 -13 -34 -53 -52 -89
-19 -36 -36 -67 -39 -70 -4 -3 -12 -21 -20 -40 -7 -19 -19 -42 -26 -50 -6 -8
-15 -29 -19 -47 -3 -17 -13 -37 -21 -44 -8 -6 -14 -19 -14 -28 0 -9 -9 -34
-19 -55 -11 -21 -23 -52 -26 -69 -4 -18 -13 -42 -21 -55 -8 -12 -19 -41 -24
-65 -4 -23 -15 -62 -24 -87 -31 -92 -56 -186 -56 -206 0 -12 -9 -50 -20 -85
-10 -35 -22 -95 -26 -134 -4 -38 -11 -81 -17 -95 -20 -49 -51 -470 -50 -680 1
-225 23 -554 47 -695 9 -49 22 -130 31 -180 22 -130 34 -192 55 -265 9 -36 23
-85 29 -110 34 -127 43 -158 57 -187 8 -17 14 -37 14 -45 0 -8 9 -30 19 -51
10 -20 22 -49 25 -64 4 -16 16 -48 28 -73 11 -25 29 -63 39 -85 24 -55 78
-167 89 -185 10 -16 76 -133 94 -165 12 -21 85 -130 139 -207 134 -190 469
-503 645 -603 9 -5 33 -19 52 -31 99 -62 264 -144 290 -144 10 0 23 -6 29 -14
7 -8 27 -18 44 -21 18 -4 51 -16 74 -26 23 -11 46 -19 50 -19 4 0 37 -9 73
-19 159 -48 357 -82 600 -102 122 -10 417 -3 485 11 22 5 90 14 150 20 61 7
124 18 140 25 17 6 53 15 80 19 28 5 68 16 90 26 22 10 54 21 72 25 17 3 37
13 44 21 6 8 22 14 35 14 12 0 25 4 28 9 3 5 25 18 48 30 117 60 258 163 368
269 30 28 57 52 60 52 6 0 239 251 278 300 42 52 47 25 52 -328 l5 -327 945 0
945 0 0 3964 c0 2635 -3 3965 -10 3967 -5 1 -23 -3 -40 -8z m-2890 -3251 c158
-23 293 -76 435 -172 113 -77 179 -141 297 -291 39 -51 98 -157 159 -289 22
-48 45 -115 64 -186 10 -37 21 -72 25 -79 4 -6 13 -53 21 -103 7 -51 19 -119
25 -152 17 -84 17 -570 0 -650 -7 -33 -19 -101 -25 -150 -7 -50 -18 -99 -24
-110 -5 -11 -15 -43 -20 -70 -16 -79 -42 -150 -101 -277 -17 -37 -31 -69 -31
-72 0 -8 -124 -189 -145 -211 -11 -11 -38 -41 -60 -65 -50 -55 -148 -140 -162
-140 -6 0 -16 -6 -22 -14 -15 -18 -177 -97 -246 -121 -83 -28 -263 -55 -368
-55 -102 0 -291 26 -360 50 -31 11 -63 20 -71 20 -7 0 -19 6 -25 14 -7 8 -27
18 -44 22 -18 3 -43 15 -56 25 -13 11 -29 19 -36 19 -6 0 -20 9 -30 20 -10 11
-24 20 -31 20 -18 0 -220 203 -259 259 -58 85 -135 229 -135 253 0 8 -4 18
-10 24 -12 12 -48 114 -65 184 -7 30 -20 82 -28 115 -9 33 -21 96 -27 140 -6
44 -15 103 -20 130 -11 66 -11 554 1 625 5 30 15 100 23 155 15 100 34 181 62
265 9 25 20 65 26 90 6 25 16 52 23 60 7 8 16 30 20 47 3 18 10 35 14 37 4 3
22 34 40 69 55 109 187 273 266 332 15 11 35 27 44 35 40 36 111 77 211 124
70 32 202 65 288 72 48 4 94 11 102 15 19 11 112 6 255 -14z"/>
<path d="M3705 11713 c-10 -3 -28 -11 -40 -18 -11 -7 -40 -16 -65 -20 -25 -4
-56 -13 -70 -20 -14 -7 -49 -18 -79 -24 -30 -6 -59 -15 -65 -20 -6 -5 -37 -14
-68 -21 -32 -6 -60 -15 -63 -20 -3 -5 -27 -12 -53 -16 -26 -4 -63 -15 -82 -25
-19 -11 -46 -19 -60 -19 -14 0 -45 -9 -69 -20 -24 -11 -52 -20 -62 -20 -11 0
-36 -7 -57 -16 -20 -9 -59 -22 -87 -30 -159 -43 -196 -54 -215 -64 -11 -6 -39
-15 -62 -20 -24 -5 -65 -16 -93 -25 -27 -9 -81 -25 -120 -37 -38 -11 -92 -28
-120 -38 -27 -10 -74 -24 -103 -30 -28 -7 -54 -16 -57 -20 -3 -5 -23 -11 -45
-15 -21 -4 -70 -17 -107 -30 l-68 -24 -5 -618 -5 -617 -25 -7 c-14 -4 -237 -7
-497 -8 l-472 -1 -15 -22 c-14 -20 -16 -108 -16 -750 0 -715 0 -728 20 -748
19 -19 33 -20 499 -20 423 0 481 -2 495 -16 14 -14 16 -158 17 -1427 0 -777 4
-1488 8 -1582 14 -281 46 -482 101 -630 11 -27 22 -62 26 -78 3 -15 10 -29 14
-32 4 -2 20 -31 35 -62 38 -78 69 -124 136 -209 59 -73 203 -214 248 -242 14
-9 28 -19 31 -22 8 -10 168 -100 177 -100 4 0 22 -7 38 -16 52 -28 222 -85
315 -105 25 -6 74 -17 110 -25 36 -8 144 -25 240 -37 161 -20 219 -22 730 -22
447 0 598 3 775 18 121 10 228 20 238 23 16 5 17 48 17 724 l0 719 -41 12
c-32 10 -53 10 -98 1 -36 -8 -159 -12 -329 -12 -258 0 -277 1 -384 26 -62 15
-120 32 -128 39 -8 7 -25 16 -38 20 -41 12 -119 99 -151 168 -17 36 -31 72
-31 80 0 8 -9 49 -20 92 -19 76 -20 111 -20 1367 0 870 3 1296 10 1309 10 18
25 19 369 19 l358 0 27 25 c16 15 26 35 26 52 0 15 9 46 19 69 10 23 22 61 26
85 4 24 13 54 21 66 7 12 17 41 20 65 4 24 15 61 25 83 10 22 19 49 19 60 0
11 8 42 19 70 10 27 28 82 39 120 12 39 28 93 37 120 9 28 23 73 30 100 8 28
21 73 30 100 10 28 22 64 27 80 6 17 16 53 23 80 7 28 20 67 29 87 9 21 16 47
16 58 0 12 9 40 20 64 10 24 20 67 22 97 l3 54 -596 3 c-484 2 -599 5 -608 16
-8 9 -12 274 -13 922 l-3 909 -30 2 c-16 0 -39 -1 -50 -4z"/>
<path d="M10088 10040 c-37 -5 -71 -11 -76 -14 -4 -3 -45 -9 -89 -15 -83 -10
-198 -39 -293 -74 -112 -41 -185 -71 -200 -83 -8 -7 -27 -15 -42 -19 -15 -4
-32 -13 -39 -21 -6 -8 -16 -14 -21 -14 -14 0 -153 -94 -229 -156 -98 -78 -271
-254 -320 -324 -13 -19 -41 -56 -61 -81 -21 -26 -38 -50 -38 -53 0 -4 -18 -31
-40 -61 -22 -30 -40 -58 -40 -62 0 -9 -43 -75 -87 -136 -15 -20 -30 -34 -35
-29 -4 4 -9 219 -10 477 -2 259 -7 476 -11 483 -6 9 -208 12 -952 12 l-944 0
-6 -32 c-3 -18 -4 -1383 -3 -3033 l3 -3000 975 -3 c536 -1 985 0 998 3 l22 5
1 1448 c0 796 4 1476 9 1512 5 36 15 122 23 191 8 70 19 135 25 145 5 11 13
44 17 74 4 30 16 74 26 97 10 23 19 51 19 62 0 20 25 82 61 153 10 20 19 43
19 51 0 8 8 25 19 38 10 13 22 35 26 48 31 98 260 357 373 421 14 8 33 21 40
28 8 7 28 19 45 27 18 8 39 18 47 23 41 24 107 52 120 52 9 0 25 7 37 15 12 8
45 20 75 25 29 6 64 16 78 22 50 22 247 41 430 42 192 1 388 -19 484 -49 27
-8 60 -15 73 -15 12 0 50 -9 82 -21 35 -12 78 -19 103 -17 l43 3 3 860 c1 473
0 870 -3 882 -6 24 -82 71 -130 80 -16 3 -43 13 -60 22 -24 12 -73 16 -255 17
-124 1 -255 -1 -292 -6z"/>
<path d="M72924 10041 c-33 -4 -65 -11 -71 -14 -6 -4 -52 -11 -103 -17 -50 -6
-104 -16 -118 -24 -15 -7 -45 -16 -67 -20 -72 -13 -307 -108 -390 -159 -83
-51 -180 -118 -235 -162 -145 -118 -331 -321 -415 -454 -6 -9 -24 -36 -40 -60
-31 -45 -33 -49 -74 -116 -14 -22 -35 -52 -47 -67 -12 -15 -24 -33 -27 -40 -4
-10 -8 -10 -16 2 -7 10 -11 164 -11 465 0 248 -3 460 -6 473 l-6 22 -949 0
-948 0 -6 -32 c-3 -18 -4 -1383 -3 -3033 l3 -3000 995 0 995 0 5 1525 c4 1161
8 1531 17 1550 7 14 17 72 23 129 6 57 15 110 21 117 5 6 14 41 20 76 5 34 16
77 24 95 8 17 15 40 15 50 0 10 9 36 20 58 11 22 20 44 20 49 0 17 101 214
116 227 8 6 14 16 14 21 0 9 27 50 68 103 96 123 285 280 392 325 14 5 36 17
50 24 71 40 251 91 395 113 136 21 440 23 580 5 89 -11 200 -34 320 -64 107
-26 133 -31 149 -25 15 6 16 75 14 889 l-3 882 -33 19 c-18 10 -63 30 -100 44
-63 24 -80 25 -297 28 -126 2 -257 0 -291 -4z"/>
<path d="M14335 10030 c-11 -4 -92 -13 -180 -19 -88 -7 -180 -16 -205 -22 -25
-6 -81 -16 -125 -23 -89 -15 -204 -41 -250 -58 -16 -6 -55 -16 -85 -24 -66
-16 -140 -40 -196 -65 -23 -11 -46 -19 -52 -19 -6 0 -33 -10 -59 -21 -27 -12
-73 -33 -103 -46 -30 -14 -62 -29 -70 -34 -8 -5 -26 -14 -40 -19 -14 -6 -33
-15 -43 -20 -10 -6 -48 -27 -85 -47 -37 -20 -85 -48 -106 -62 -21 -14 -51 -33
-66 -41 -15 -8 -47 -30 -71 -48 -24 -18 -87 -66 -139 -105 -125 -94 -143 -110
-285 -252 -148 -148 -256 -281 -366 -450 -102 -158 -99 -153 -144 -240 -20
-38 -45 -86 -55 -105 -11 -19 -20 -42 -20 -51 0 -9 -6 -22 -14 -28 -8 -7 -18
-25 -21 -41 -3 -15 -15 -45 -26 -66 -10 -21 -19 -46 -19 -56 0 -9 -4 -19 -9
-22 -5 -3 -23 -52 -40 -108 -69 -222 -97 -335 -116 -458 -7 -47 -18 -107 -24
-135 -41 -198 -39 -868 4 -1080 7 -38 18 -107 24 -153 6 -45 15 -91 20 -101 6
-9 13 -42 17 -72 3 -30 15 -73 25 -96 11 -23 19 -54 19 -68 0 -14 7 -40 16
-57 9 -17 22 -51 29 -77 16 -58 41 -127 60 -166 8 -16 26 -57 41 -90 38 -86
81 -174 109 -220 13 -22 27 -47 31 -55 29 -59 171 -261 256 -364 222 -267 532
-528 768 -647 14 -7 32 -18 40 -25 26 -21 181 -98 260 -128 41 -17 80 -33 86
-38 13 -9 108 -44 176 -63 25 -7 55 -18 66 -24 11 -6 44 -16 72 -22 28 -6 64
-17 78 -25 15 -8 39 -14 53 -14 15 0 55 -9 90 -19 35 -11 91 -22 124 -26 33
-4 87 -13 120 -21 166 -39 635 -69 858 -55 184 12 494 45 518 55 9 4 54 13
100 20 127 20 306 66 414 107 28 11 57 19 65 19 9 0 32 9 53 20 20 11 42 20
48 20 12 0 215 85 239 100 8 5 51 28 95 50 44 22 98 51 120 65 22 13 51 30 65
37 14 7 32 20 41 28 9 8 36 26 59 40 23 14 51 32 61 40 10 8 35 26 55 40 19
14 46 34 59 45 12 11 44 38 71 60 50 42 213 202 275 271 60 67 159 192 159
202 0 5 9 17 20 27 11 10 20 24 20 30 0 7 7 18 16 25 8 8 22 27 30 44 8 17 27
51 43 76 48 73 40 91 -44 110 -27 6 -54 15 -60 19 -5 5 -37 14 -70 21 -32 7
-68 18 -80 25 -11 7 -39 15 -62 19 -24 3 -57 13 -75 20 -18 8 -73 26 -123 41
-49 15 -115 34 -145 44 -51 17 -91 29 -270 84 -36 11 -88 28 -115 38 -28 11
-58 19 -68 19 -10 0 -39 8 -65 19 -26 10 -65 23 -87 29 -22 5 -53 15 -70 20
-57 21 -130 43 -204 63 -85 22 -84 23 -139 -60 -128 -194 -265 -339 -394 -416
-100 -60 -127 -75 -139 -75 -8 0 -23 -6 -34 -14 -11 -7 -44 -19 -73 -25 -30
-6 -62 -16 -73 -22 -20 -10 -310 -42 -384 -42 -150 0 -441 50 -518 89 -16 8
-35 14 -42 14 -12 0 -100 40 -135 61 -8 5 -26 15 -40 22 -67 33 -204 139 -259
201 -14 16 -41 45 -60 65 -18 20 -42 52 -52 73 -10 20 -22 38 -26 40 -11 4
-36 51 -123 228 -9 19 -20 52 -24 72 -4 20 -13 50 -21 65 -8 15 -15 42 -15 58
-1 17 -7 48 -16 70 -22 60 -40 310 -24 330 11 13 262 15 2254 17 l2241 3 3
155 c2 149 -5 288 -28 545 -20 228 -70 508 -115 655 -8 25 -17 63 -21 85 -3
22 -12 49 -19 60 -6 11 -15 37 -19 59 -4 21 -16 55 -27 75 -10 20 -19 44 -19
54 0 10 -9 35 -20 57 -11 22 -20 44 -20 49 0 18 -115 258 -171 356 -15 28 -31
57 -35 65 -4 8 -15 26 -25 40 -14 22 -115 173 -144 217 -5 9 -18 25 -28 37 -9
11 -39 48 -65 81 -103 128 -252 281 -368 375 -55 45 -193 148 -221 165 -17 11
-57 36 -88 55 -73 46 -130 77 -213 119 -37 18 -74 38 -82 42 -8 5 -22 12 -30
15 -8 4 -33 15 -55 25 -22 10 -58 24 -80 32 -22 8 -56 21 -75 28 -190 68 -346
111 -499 135 -47 7 -98 18 -115 24 -17 6 -100 15 -186 21 -85 5 -174 14 -197
19 -51 12 -430 12 -458 0z m517 -1364 c24 -9 68 -20 98 -27 30 -6 64 -18 75
-25 11 -8 25 -14 33 -14 13 0 140 -59 177 -82 68 -44 139 -101 196 -158 70
-70 129 -142 129 -158 0 -5 7 -15 15 -22 8 -7 21 -24 28 -39 8 -14 28 -53 45
-86 18 -33 32 -64 32 -69 0 -5 8 -28 19 -50 10 -23 24 -59 29 -81 31 -112 41
-156 52 -222 12 -67 12 -75 -5 -93 -18 -20 -30 -20 -1241 -20 l-1223 0 -20 26
c-14 18 -18 31 -12 43 5 9 12 39 16 66 7 50 31 134 66 230 10 28 21 62 25 77
3 15 12 32 20 39 8 6 14 16 14 22 0 40 174 287 244 347 17 14 37 32 45 41 39
39 112 90 176 124 39 20 75 41 81 46 6 5 26 12 45 15 19 4 50 15 69 26 19 10
44 18 56 18 12 0 41 7 65 16 68 25 185 33 405 29 143 -3 215 -9 246 -19z"/>
<path d="M22641 10031 c-8 -5 -68 -12 -135 -16 -67 -4 -150 -13 -186 -22 -36
-8 -96 -21 -135 -28 -105 -21 -217 -53 -247 -70 -14 -8 -35 -15 -45 -15 -10 0
-27 -6 -38 -14 -11 -7 -31 -16 -45 -20 -46 -14 -244 -115 -297 -153 -17 -13
-35 -23 -40 -23 -6 0 -18 -9 -28 -20 -10 -11 -23 -20 -28 -20 -6 0 -17 -7 -26
-15 -9 -9 -34 -29 -56 -46 -97 -73 -287 -254 -355 -338 -19 -24 -51 -61 -69
-83 -59 -67 -61 -55 -61 336 0 188 -3 351 -6 364 l-6 22 -948 0 -948 0 -6 -22
c-3 -13 -6 -1376 -6 -3030 l0 -3008 23 -5 c12 -3 461 -4 997 -3 l975 3 5 1790
c4 1388 8 1795 17 1811 7 12 17 60 22 107 6 48 16 99 24 114 8 15 17 49 21 75
4 25 14 52 21 58 8 7 15 20 15 29 0 9 16 46 35 81 19 36 40 76 47 90 30 60
217 259 244 260 6 0 17 6 23 14 10 12 81 49 176 92 17 7 48 18 70 23 22 5 67
16 100 25 77 22 386 32 510 18 290 -34 496 -177 607 -422 32 -70 78 -217 78
-250 0 -14 8 -54 17 -90 15 -59 17 -241 22 -1945 l6 -1880 990 0 990 0 2 2146
c2 1250 -1 2158 -6 2175 -5 16 -14 90 -21 164 -6 74 -18 155 -25 180 -7 25
-18 79 -24 119 -7 41 -16 80 -20 85 -5 6 -14 36 -21 66 -7 30 -19 64 -26 75
-8 11 -14 28 -14 38 0 10 -9 35 -19 55 -11 20 -34 66 -52 102 -101 205 -267
411 -435 541 -38 29 -73 58 -77 66 -4 7 -14 13 -21 13 -8 0 -19 7 -26 16 -8 8
-27 22 -44 30 -17 8 -51 27 -76 43 -52 34 -214 116 -250 126 -14 4 -29 11 -35
15 -23 18 -218 80 -330 104 -33 7 -78 19 -100 25 -103 31 -669 65 -704 42z"/>
<path d="M46200 10030 c-14 -5 -127 -13 -251 -19 -125 -6 -237 -15 -250 -20
-13 -6 -80 -17 -149 -25 -69 -9 -150 -22 -180 -31 -30 -8 -66 -15 -80 -15 -14
0 -51 -9 -83 -20 -31 -11 -67 -20 -81 -20 -13 0 -43 -9 -67 -20 -24 -11 -54
-20 -67 -20 -12 0 -40 -9 -62 -20 -22 -11 -47 -20 -56 -20 -16 0 -39 -10 -159
-66 -28 -13 -58 -24 -67 -24 -9 0 -19 -4 -22 -8 -3 -5 -36 -24 -73 -42 -37
-19 -79 -42 -93 -51 -14 -9 -59 -38 -100 -65 -41 -27 -77 -51 -80 -54 -3 -3
-25 -20 -50 -39 -87 -67 -270 -247 -270 -267 0 -3 -17 -27 -37 -53 -49 -60
-81 -105 -94 -133 -5 -13 -21 -41 -34 -63 -14 -22 -32 -56 -40 -75 -21 -46
-38 -84 -63 -141 -29 -66 -36 -110 -20 -132 12 -15 66 -35 203 -72 28 -7 68
-20 90 -28 22 -8 74 -25 115 -37 41 -13 100 -31 130 -41 30 -10 70 -21 88 -24
18 -4 45 -13 60 -21 15 -8 34 -14 43 -14 8 0 48 -11 87 -25 39 -14 80 -25 90
-25 10 0 22 -4 27 -9 6 -5 42 -19 80 -30 66 -19 114 -33 273 -82 37 -11 92
-27 122 -35 30 -8 62 -19 72 -24 9 -5 45 -16 80 -25 34 -9 68 -20 73 -25 6 -4
29 -11 51 -15 31 -5 45 -2 57 10 18 17 37 76 37 113 0 12 9 40 20 62 11 22 20
44 20 50 0 24 73 164 100 190 3 3 18 22 33 43 16 20 52 54 80 75 74 52 87 60
127 78 19 8 47 21 62 29 14 8 33 15 41 15 8 0 43 10 78 22 61 20 82 22 404 22
330 1 343 0 425 -23 101 -28 204 -67 240 -89 206 -131 287 -298 277 -572 -8
-226 -33 -280 -173 -376 -18 -12 -43 -25 -55 -29 -13 -4 -33 -13 -45 -20 -19
-12 -73 -29 -174 -55 -25 -6 -78 -20 -117 -31 -40 -10 -87 -19 -104 -19 -17 0
-68 -9 -113 -20 -44 -10 -120 -24 -168 -29 -48 -6 -104 -14 -125 -20 -21 -5
-69 -12 -108 -16 -38 -3 -106 -12 -150 -20 -44 -8 -125 -19 -180 -25 -55 -6
-128 -17 -163 -25 -35 -8 -84 -15 -110 -15 -26 0 -85 -9 -132 -20 -47 -11
-102 -20 -122 -20 -21 0 -81 -9 -135 -20 -54 -11 -134 -27 -178 -36 -44 -8
-112 -22 -152 -29 -40 -8 -80 -18 -90 -23 -10 -6 -40 -13 -68 -17 -27 -4 -72
-16 -98 -26 -26 -11 -56 -19 -65 -19 -10 0 -34 -9 -55 -20 -20 -11 -45 -20
-56 -20 -17 0 -67 -20 -177 -71 -22 -10 -43 -19 -46 -19 -7 0 -169 -90 -183
-102 -5 -5 -32 -23 -60 -40 -73 -46 -135 -98 -255 -210 -35 -33 -129 -148
-166 -202 -53 -80 -124 -216 -124 -239 0 -8 -6 -20 -14 -26 -8 -7 -18 -27 -21
-44 -4 -18 -13 -45 -21 -62 -7 -16 -20 -59 -28 -95 -8 -36 -19 -83 -24 -105
-6 -22 -18 -120 -28 -217 -16 -164 -16 -200 0 -383 10 -124 27 -245 36 -271 6
-16 16 -54 22 -84 5 -30 16 -67 24 -82 8 -15 14 -35 14 -45 0 -10 8 -34 18
-53 11 -19 22 -48 26 -64 4 -16 16 -41 27 -54 10 -14 19 -33 19 -42 0 -10 7
-23 15 -30 8 -6 17 -20 20 -31 7 -19 78 -133 112 -178 10 -13 74 -82 143 -153
124 -127 248 -225 370 -290 30 -16 84 -45 118 -64 35 -19 70 -34 78 -34 7 0
28 -9 46 -20 18 -11 40 -20 48 -20 8 -1 33 -9 55 -20 22 -11 48 -19 57 -20 10
0 44 -9 75 -19 32 -11 81 -23 108 -27 28 -4 61 -12 75 -19 14 -7 66 -16 115
-20 50 -4 126 -13 170 -20 117 -20 350 -27 510 -16 164 12 445 45 495 60 19 5
60 13 90 16 30 4 66 13 80 20 14 7 48 16 75 20 28 4 69 16 92 26 23 11 48 19
55 19 7 0 30 9 51 20 20 11 44 20 52 20 9 0 33 9 53 20 20 10 84 42 142 71
137 67 168 84 189 103 10 9 20 16 24 16 16 0 238 157 267 190 44 48 118 99
138 94 28 -8 30 -16 37 -136 4 -57 13 -123 20 -148 8 -25 19 -74 25 -109 7
-36 20 -82 31 -103 l19 -38 1008 2 c888 3 1007 5 1005 18 -2 18 -29 94 -48
135 -8 17 -19 48 -24 70 -5 22 -16 60 -25 85 -67 200 -100 441 -127 915 -11
210 -1 1995 12 2047 15 57 15 1099 1 1178 -7 36 -19 126 -27 200 -14 135 -36
259 -56 315 -6 17 -16 50 -23 75 -11 39 -82 191 -119 256 -95 165 -262 326
-507 486 -87 58 -332 178 -361 178 -8 0 -19 4 -25 10 -12 12 -112 48 -184 65
-30 8 -75 21 -100 29 -59 20 -166 45 -264 62 -43 7 -93 18 -110 23 -17 6 -65
13 -106 17 -41 3 -100 12 -130 20 -30 7 -152 18 -270 24 -118 7 -228 16 -244
21 -36 11 -552 11 -586 -1z m1171 -3402 c8 -16 10 -112 6 -357 -4 -289 -8
-351 -26 -441 -22 -108 -54 -222 -76 -275 -35 -81 -80 -171 -92 -183 -7 -7
-13 -17 -13 -22 0 -12 -128 -169 -160 -196 -14 -12 -37 -32 -52 -45 -58 -50
-213 -149 -234 -149 -4 0 -25 -8 -48 -19 -23 -10 -72 -28 -111 -40 -64 -19
-111 -28 -265 -51 -72 -11 -273 -11 -330 0 -25 4 -82 15 -127 23 -45 9 -90 20
-100 26 -10 5 -49 24 -88 42 -74 34 -130 73 -180 124 -42 43 -105 122 -105
132 0 4 -8 24 -19 44 -46 86 -73 247 -64 384 14 231 109 394 293 500 44 25 82
45 86 45 4 0 26 9 48 19 57 27 152 60 206 72 25 5 63 16 85 24 22 7 62 17 88
20 26 4 62 12 80 20 18 7 61 16 97 20 36 3 85 12 110 20 25 7 74 16 110 20 36
3 103 15 150 25 47 10 108 23 135 28 125 25 173 36 220 53 130 45 201 74 215
85 8 6 26 15 39 19 12 4 39 18 58 31 44 29 49 30 64 2z"/>
<path d="M64775 10030 c-16 -4 -106 -13 -199 -19 -92 -6 -176 -16 -185 -21
-10 -5 -58 -14 -107 -20 -49 -6 -105 -17 -124 -24 -19 -8 -57 -17 -85 -21 -27
-4 -61 -13 -75 -20 -14 -7 -45 -16 -70 -20 -25 -4 -64 -16 -87 -26 -23 -11
-49 -19 -57 -19 -9 0 -33 -9 -53 -20 -21 -11 -44 -20 -51 -20 -12 0 -49 -16
-157 -65 -105 -48 -252 -124 -320 -166 -44 -26 -91 -54 -105 -61 -14 -7 -32
-19 -40 -26 -8 -7 -61 -47 -116 -87 -219 -160 -497 -441 -619 -625 -17 -25
-35 -49 -41 -55 -6 -5 -29 -38 -50 -73 -85 -138 -111 -184 -173 -312 -29 -58
-61 -122 -71 -142 -11 -20 -20 -43 -20 -50 -1 -7 -9 -31 -20 -53 -11 -22 -19
-47 -20 -55 0 -8 -9 -32 -20 -53 -11 -20 -20 -46 -20 -58 0 -11 -9 -41 -19
-67 -24 -60 -49 -155 -66 -257 -7 -44 -18 -92 -24 -108 -6 -15 -15 -78 -21
-140 -6 -61 -16 -130 -23 -152 -16 -55 -17 -731 0 -760 6 -11 16 -81 23 -155
7 -74 16 -143 22 -153 5 -10 16 -55 23 -100 16 -95 41 -197 61 -247 7 -19 18
-54 24 -77 6 -23 17 -54 25 -70 8 -15 15 -37 15 -48 0 -11 9 -35 20 -53 11
-18 20 -40 20 -50 0 -9 12 -39 25 -67 14 -27 25 -55 25 -62 0 -6 3 -13 8 -15
4 -1 22 -34 41 -73 18 -38 37 -77 42 -85 5 -8 18 -31 29 -50 11 -19 29 -48 40
-65 11 -16 25 -41 32 -55 7 -14 28 -45 48 -70 20 -25 43 -57 52 -71 55 -87
295 -354 385 -427 106 -87 221 -179 235 -187 8 -5 49 -32 89 -60 41 -27 83
-55 94 -61 11 -6 58 -33 105 -61 111 -64 296 -153 320 -153 7 0 21 -6 29 -14
9 -7 34 -18 56 -24 22 -6 63 -18 90 -28 193 -67 273 -92 328 -99 26 -3 62 -12
80 -19 18 -8 59 -17 92 -20 33 -4 83 -13 110 -21 28 -7 113 -18 190 -25 76 -6
157 -15 180 -19 118 -26 521 -21 750 8 44 6 118 15 165 20 88 10 222 34 300
53 25 6 63 15 85 20 52 12 168 46 225 64 25 9 62 20 84 25 21 5 48 16 60 24
11 8 27 15 36 15 8 0 38 11 65 25 28 13 57 25 66 25 9 0 22 7 29 15 7 8 17 15
23 15 16 0 219 101 235 117 7 7 19 13 26 13 6 0 21 7 31 15 11 8 70 47 130 87
140 92 295 217 410 333 92 91 236 263 290 345 17 25 33 47 36 50 3 3 14 19 23
35 9 17 28 48 41 70 31 49 55 103 55 121 0 8 -12 16 -27 19 -16 3 -41 10 -58
16 -16 6 -58 20 -92 30 -35 10 -91 28 -125 38 -35 10 -76 24 -93 30 -16 5 -70
22 -120 36 -49 15 -108 32 -130 40 -22 7 -80 25 -130 40 -49 14 -101 31 -115
37 -14 6 -54 18 -90 28 -36 10 -78 22 -95 28 -16 6 -64 20 -105 32 -41 13 -93
29 -115 37 -22 8 -62 21 -90 28 -27 8 -82 23 -122 34 -40 11 -82 25 -93 31
-29 15 -55 5 -79 -33 -39 -61 -46 -72 -85 -126 -106 -148 -282 -312 -401 -374
-66 -35 -171 -77 -189 -77 -9 0 -37 -7 -63 -16 -49 -17 -275 -45 -373 -47 -77
-1 -368 31 -391 43 -10 6 -45 15 -76 21 -31 6 -66 17 -77 25 -11 8 -27 14 -36
14 -18 0 -204 93 -224 112 -8 7 -51 40 -97 73 -83 61 -186 174 -251 278 -55
87 -58 91 -69 117 -6 14 -19 43 -30 65 -34 74 -59 137 -59 151 0 8 -9 40 -19
71 -11 32 -25 94 -30 138 -6 44 -15 103 -20 130 -14 71 -13 139 1 153 9 9 521
12 2243 12 1722 0 2234 3 2243 12 8 8 12 55 12 148 -1 211 -19 609 -29 628 -5
9 -14 67 -20 127 -10 98 -19 144 -61 330 -6 28 -16 73 -22 100 -6 28 -16 66
-24 85 -8 19 -18 53 -23 75 -6 22 -24 78 -41 125 -17 47 -35 99 -40 115 -5 17
-19 48 -30 70 -11 21 -20 47 -20 56 0 9 -7 22 -15 29 -8 7 -15 17 -15 23 0 12
-100 213 -135 272 -13 22 -31 55 -40 73 -8 17 -19 32 -23 32 -5 0 -16 15 -26
33 -73 138 -289 397 -457 548 -190 170 -424 334 -599 417 -14 6 -32 16 -40 21
-8 5 -42 22 -75 36 -33 15 -77 36 -97 46 -20 10 -43 19 -50 19 -7 1 -31 9 -53
20 -22 11 -47 20 -55 20 -8 0 -28 7 -45 16 -16 9 -55 22 -85 29 -30 7 -68 17
-85 23 -44 16 -152 42 -220 52 -33 6 -93 17 -132 26 -162 35 -777 67 -858 44z
m525 -1368 c36 -11 83 -24 105 -30 67 -17 139 -44 155 -57 8 -7 26 -16 40 -20
14 -4 36 -16 49 -26 13 -11 29 -19 36 -19 6 0 20 -9 30 -20 10 -11 22 -20 27
-20 5 0 29 -19 54 -42 25 -24 57 -54 72 -68 36 -34 102 -110 102 -118 0 -3 8
-14 17 -24 62 -69 163 -293 197 -438 8 -30 18 -67 24 -82 13 -32 18 -125 8
-155 l-7 -23 -1239 0 -1238 0 -9 28 c-10 29 -5 69 22 177 69 277 225 541 414
697 46 38 101 79 124 91 113 62 163 87 177 87 9 0 24 6 35 14 11 7 47 19 80
26 33 7 68 17 79 22 33 18 188 27 386 23 154 -3 209 -8 260 -23z"/>
<path d="M33195 9851 c-3 -10 -1 -36 4 -57 9 -35 18 -64 53 -169 6 -16 17 -55
25 -85 7 -30 20 -66 27 -80 7 -14 17 -43 21 -65 3 -21 13 -51 20 -65 7 -14 16
-44 20 -65 4 -22 13 -49 20 -61 8 -12 17 -39 20 -60 4 -21 15 -61 25 -89 10
-27 28 -84 40 -125 13 -41 31 -95 40 -120 10 -25 21 -63 25 -84 3 -21 12 -48
20 -60 7 -12 16 -39 19 -61 4 -22 15 -62 25 -90 33 -90 43 -119 56 -170 7 -27
20 -67 29 -87 9 -21 16 -47 16 -59 0 -11 7 -35 15 -52 14 -30 24 -62 62 -197
8 -30 19 -60 23 -65 5 -6 15 -37 24 -70 14 -56 32 -118 57 -190 13 -37 45
-143 65 -211 8 -29 21 -65 29 -80 8 -16 15 -40 15 -52 0 -13 7 -38 15 -55 8
-18 21 -54 29 -82 8 -27 24 -81 36 -120 12 -38 30 -97 41 -130 10 -33 25 -80
33 -105 8 -25 33 -106 56 -180 23 -74 50 -158 61 -185 10 -28 19 -58 19 -68 0
-10 9 -39 20 -65 11 -26 24 -65 29 -87 10 -39 32 -112 52 -170 6 -16 15 -48
21 -70 6 -22 19 -58 29 -81 11 -22 19 -51 19 -65 1 -13 9 -42 20 -64 11 -22
19 -51 20 -65 0 -14 8 -41 18 -60 11 -19 22 -55 26 -80 4 -25 13 -54 20 -65 7
-11 16 -38 20 -60 4 -22 15 -62 25 -90 32 -88 43 -119 52 -160 5 -22 18 -61
29 -87 11 -26 20 -56 20 -68 0 -12 7 -36 15 -53 8 -18 24 -63 35 -102 30 -100
47 -156 59 -190 21 -62 79 -247 98 -315 8 -30 19 -59 23 -65 4 -5 12 -33 18
-60 6 -28 18 -64 26 -80 9 -17 16 -39 16 -50 1 -11 8 -38 16 -60 9 -22 22 -62
29 -90 7 -27 22 -72 32 -100 l19 -50 1008 0 1008 0 24 70 c13 39 24 79 24 90
0 11 8 49 19 85 27 90 49 183 66 265 16 81 39 172 66 265 11 36 19 74 19 85 0
12 9 46 20 78 11 31 20 66 20 79 0 12 8 49 19 82 26 86 50 182 62 246 5 30 14
66 21 80 6 14 17 54 24 90 18 88 41 182 65 260 10 36 19 75 19 87 0 13 7 40
15 60 8 21 21 67 29 103 41 181 56 241 64 257 5 10 12 43 16 74 3 31 12 72 20
91 8 19 18 59 22 89 4 30 13 68 20 84 6 17 15 57 19 90 4 33 16 86 26 119 11
32 19 71 19 85 0 15 9 61 19 102 10 41 22 102 25 136 4 35 13 78 20 95 8 18
17 71 21 116 3 46 12 100 19 120 7 21 16 69 20 107 4 39 13 95 21 125 7 30 16
87 20 125 3 39 13 97 20 130 11 46 35 225 35 260 0 3 4 5 10 5 5 0 15 -19 21
-42 6 -24 17 -61 24 -83 7 -22 18 -92 25 -155 7 -63 16 -122 21 -131 4 -9 13
-64 19 -124 6 -60 15 -116 20 -125 5 -9 13 -61 20 -115 6 -55 17 -122 25 -149
8 -27 15 -66 15 -86 0 -20 7 -60 16 -89 8 -30 21 -88 29 -130 11 -69 26 -137
57 -261 6 -25 19 -79 29 -120 10 -41 27 -109 38 -150 11 -41 25 -95 32 -120 6
-25 20 -72 30 -106 11 -33 19 -67 19 -75 0 -8 9 -43 19 -79 19 -62 36 -129 65
-250 7 -30 21 -77 30 -103 9 -26 16 -58 16 -71 0 -14 9 -48 19 -78 10 -29 23
-75 29 -103 12 -56 27 -116 49 -190 9 -27 21 -75 29 -105 30 -128 46 -189 65
-250 10 -36 19 -72 19 -80 0 -9 9 -41 20 -73 11 -31 20 -69 20 -84 0 -16 7
-41 15 -57 8 -15 20 -58 25 -94 6 -35 15 -73 20 -82 5 -10 16 -46 24 -81 19
-84 34 -141 57 -214 10 -34 22 -82 25 -107 4 -25 10 -52 15 -59 7 -12 174 -14
1009 -14 l1001 0 23 60 c41 109 57 159 66 202 5 24 16 56 24 72 9 16 19 48 22
72 4 24 13 53 20 64 6 11 17 43 22 70 6 28 18 64 26 80 9 17 16 38 16 48 0 10
8 39 19 65 10 26 24 67 31 92 31 116 46 166 52 175 3 6 13 35 21 65 9 30 23
73 31 95 8 22 15 49 16 60 0 11 7 30 15 42 8 11 17 40 21 64 4 24 14 58 22 74
8 17 19 46 23 65 3 19 13 55 22 80 8 25 22 68 32 95 9 28 21 68 26 90 5 22 16
54 24 72 8 17 15 36 15 41 0 15 49 171 65 207 7 17 18 57 25 88 6 31 15 59 20
62 5 3 14 31 20 63 7 31 16 62 20 67 5 6 15 35 24 65 19 69 51 176 65 215 24
70 43 134 57 186 7 31 21 69 29 85 8 16 15 38 15 49 0 11 6 32 14 47 8 14 19
50 25 78 6 28 17 63 25 78 7 15 16 44 20 66 4 21 13 52 21 70 7 17 25 72 40
121 14 50 33 106 41 125 7 19 18 56 23 81 6 25 17 58 26 75 8 16 15 39 15 50
0 12 8 43 19 70 10 27 28 83 41 124 12 41 29 93 37 115 8 22 21 63 28 90 7 28
18 64 24 80 21 60 43 131 56 183 7 29 18 58 23 65 5 7 13 28 17 47 7 35 46
163 70 230 7 19 22 69 35 110 12 41 31 98 41 125 10 28 23 70 28 95 10 46 30
110 63 192 10 26 18 56 18 68 0 11 7 34 15 50 8 16 20 53 26 82 6 29 16 58 21
65 5 7 15 36 23 65 7 29 18 67 24 83 19 55 42 130 56 180 7 28 20 66 28 86 14
31 22 90 18 127 -1 9 -208 12 -1001 12 -987 0 -1000 0 -1020 -20 -11 -11 -20
-33 -20 -50 0 -16 -7 -47 -16 -69 -8 -22 -22 -66 -29 -98 -7 -32 -18 -76 -24
-98 -5 -22 -15 -60 -21 -85 -6 -25 -22 -85 -36 -135 -14 -49 -29 -112 -35
-140 -5 -27 -16 -66 -24 -85 -8 -19 -19 -60 -24 -90 -10 -58 -30 -135 -61
-235 -10 -33 -21 -79 -24 -101 -3 -23 -13 -54 -21 -70 -8 -16 -15 -41 -15 -56
0 -16 -9 -54 -19 -85 -11 -32 -23 -78 -26 -103 -4 -25 -13 -56 -20 -70 -7 -14
-15 -45 -19 -70 -3 -25 -13 -65 -21 -90 -21 -63 -44 -153 -62 -240 -8 -41 -19
-80 -23 -85 -5 -6 -13 -38 -19 -70 -5 -33 -16 -73 -25 -90 -9 -16 -16 -42 -16
-57 0 -16 -9 -54 -19 -85 -11 -32 -23 -78 -26 -103 -4 -25 -12 -53 -17 -63 -5
-10 -15 -53 -23 -97 -8 -44 -18 -87 -23 -97 -6 -10 -13 -45 -17 -78 -4 -33
-15 -89 -26 -124 -10 -35 -19 -74 -19 -88 0 -14 -9 -62 -19 -107 -11 -44 -22
-107 -26 -140 -4 -32 -13 -76 -21 -98 -8 -22 -14 -57 -14 -77 0 -20 -7 -65
-15 -100 -9 -35 -22 -107 -30 -160 -29 -195 -46 -297 -56 -341 -18 -81 -43
-160 -51 -160 -10 0 -8 -11 -23 105 -11 91 -23 165 -54 355 -6 36 -18 115 -26
175 -9 61 -19 119 -24 131 -5 12 -12 48 -15 80 -4 32 -15 100 -26 149 -33 156
-52 248 -65 320 -7 39 -20 99 -28 135 -23 96 -36 157 -53 235 -8 39 -19 81
-24 95 -6 14 -16 59 -24 100 -8 41 -20 95 -26 120 -24 93 -55 222 -90 375 -25
109 -49 207 -70 285 -10 36 -23 88 -28 115 -27 126 -44 193 -57 228 -8 20 -15
50 -15 65 0 15 -8 56 -19 92 -11 36 -31 119 -46 185 -15 66 -35 148 -46 183
-10 34 -19 71 -19 82 0 11 -9 53 -19 93 -33 123 -42 159 -60 242 -10 44 -23
96 -29 115 -6 19 -13 54 -17 77 -12 79 67 73 -949 71 l-908 -3 -19 -50 c-11
-27 -26 -81 -34 -120 -7 -38 -18 -88 -24 -110 -22 -84 -43 -172 -55 -235 -7
-36 -20 -87 -30 -113 -9 -26 -16 -60 -16 -75 0 -15 -9 -53 -20 -85 -11 -31
-20 -71 -20 -89 0 -18 -9 -60 -19 -93 -11 -33 -24 -82 -30 -110 -5 -27 -14
-68 -20 -90 -21 -81 -42 -171 -51 -220 -5 -27 -16 -75 -24 -105 -8 -30 -27
-109 -41 -175 -15 -66 -35 -149 -46 -185 -11 -36 -19 -76 -19 -89 0 -14 -9
-52 -19 -85 -10 -34 -24 -85 -30 -113 -25 -118 -34 -161 -48 -213 -8 -30 -20
-89 -27 -130 -7 -41 -18 -86 -23 -100 -6 -14 -14 -54 -18 -90 -4 -35 -13 -81
-20 -101 -7 -20 -16 -63 -20 -95 -3 -33 -13 -81 -21 -109 -13 -46 -28 -130
-55 -295 -5 -36 -19 -105 -29 -155 -11 -49 -22 -119 -26 -155 -4 -35 -12 -80
-19 -100 -7 -19 -15 -71 -19 -115 -4 -44 -14 -105 -21 -135 -8 -30 -19 -95
-25 -144 -11 -103 -21 -120 -50 -90 -15 15 -23 43 -31 109 -6 50 -19 126 -29
170 -10 44 -21 112 -25 150 -3 39 -12 88 -20 110 -8 22 -14 61 -15 86 0 25 -7
68 -15 95 -8 27 -20 85 -25 129 -6 44 -17 103 -25 130 -7 28 -16 73 -20 100
-6 46 -33 177 -56 270 -5 22 -16 75 -24 117 -8 43 -21 99 -29 125 -7 27 -19
73 -25 103 -33 155 -48 217 -58 235 -6 11 -13 43 -17 72 -4 28 -13 67 -20 85
-8 18 -17 56 -21 83 -4 28 -12 56 -18 63 -6 7 -16 41 -23 75 -17 80 -43 184
-56 222 -12 37 -45 160 -63 238 -7 32 -20 75 -28 95 -8 20 -18 61 -22 89 -4
29 -11 55 -15 58 -5 3 -14 31 -20 63 -6 31 -20 84 -30 117 -23 79 -38 136 -56
215 -8 36 -21 79 -29 97 -8 17 -15 43 -15 57 0 14 -9 48 -20 76 -11 28 -20 62
-20 75 0 13 -8 46 -19 72 -10 26 -22 70 -26 98 -4 27 -13 61 -20 75 -7 14 -16
45 -20 70 -4 25 -17 69 -30 98 l-24 52 -1010 0 c-980 0 -1010 -1 -1016 -19z"/>
</g>
</svg>
